<?xml version="1.0" encoding="utf-8"?>
<!-- Generator: Adobe Illustrator 16.0.0, SVG Export Plug-In . SVG Version: 6.00 Build 0)  -->
<!DOCTYPE svg PUBLIC "-//W3C//DTD SVG 1.1//EN" "http://www.w3.org/Graphics/SVG/1.1/DTD/svg11.dtd">
<svg version="1.1" id="Layer_1" xmlns="http://www.w3.org/2000/svg" xmlns:xlink="http://www.w3.org/1999/xlink" x="0px" y="0px"
	 width="296.65px" height="367.055px" viewBox="0 0 296.65 367.055" enable-background="new 0 0 296.65 367.055"
	 xml:space="preserve">
<path fill="#BDBDBD" d="M254.326,121.84v-15.935c0-58.46-47.553-106.012-106.012-106.012c-58.461,0-106.013,47.552-106.013,106.012
	v15.935c-23.739,2.65-42.303,23.269-42.303,48.25v147.547c0,26.751,21.321,48.522,47.485,48.522h201.659
	c26.188,0,47.507-21.771,47.507-48.522V170.09C296.651,145.107,278.085,124.488,254.326,121.84z M148.315,46.048
	c32.993,0,59.856,26.864,59.856,59.857v15.64H88.456v-15.64C88.456,72.912,115.299,46.048,148.315,46.048z"/>
</svg>
