<?xml version="1.0" encoding="utf-8"?>
<!-- Generator: Adobe Illustrator 16.0.0, SVG Export Plug-In . SVG Version: 6.00 Build 0)  -->
<!DOCTYPE svg PUBLIC "-//W3C//DTD SVG 1.1//EN" "http://www.w3.org/Graphics/SVG/1.1/DTD/svg11.dtd">
<svg version="1.1" id="Layer_1" xmlns="http://www.w3.org/2000/svg" xmlns:xlink="http://www.w3.org/1999/xlink" x="0px" y="0px"
	 width="397.105px" height="396.871px" viewBox="0 0 397.105 396.871" enable-background="new 0 0 397.105 396.871"
	 xml:space="preserve">
<path fill="#BDBDBD" d="M394.088,369.745c-0.795-5.959-2.065-11.836-3.045-17.77c-3.23-19.558-12.793-33.525-31.807-41.826
	c-30.375-13.256-60.111-27.953-89.959-42.398c-21.582-10.475-20.312-34.308-13.215-44.344c4.607-6.541,8.66-13.398,9.137-22.033
	c0.172-3.188,3.219-7.36,6.131-9.028c10.104-5.827,14.791-15.334,19.385-25.185c1.205-2.595,2.859-5.111,4.754-7.256
	c3.283-3.747,4.754-7.455,2.355-12.341c-0.556-1.151,0.516-3.23,1.086-4.793c1.668-4.661,3.985-9.176,5.084-13.969
	c1.379-5.945,2.092-12.102,2.424-18.206c0.146-2.528-2.344-5.243-2.078-7.732c1.351-12.368-5.643-21.782-9.588-32.547
	c-4.832-13.254-14.312-21.556-22.681-31.434c-1.575-1.854-2.026-5.058-2.159-7.707c-0.279-5.654-2.609-8.448-8.527-7.679
	c-2.368,0.305-4.95,0.967-7.135,0.384c-1.922-0.517-4.809-2.437-4.914-3.919c-0.596-7.494-3.203-8.727-10.857-7.455
	c-4.792,0.794-11.029-3.548-15.729-6.806c-3.933-2.729-7.322-3.893-11.892-2.781c-1.905,0.463-4.474,0.384-6.091-0.556
	c-1.721-1.032-3.401-1.642-5.084-1.986v-0.29c-0.371,0.012-0.768,0.079-1.139,0.119c-0.37-0.04-0.741-0.106-1.111-0.119v0.291
	c-1.694,0.344-3.391,0.954-5.099,1.986c-1.602,0.94-4.171,1.02-6.077,0.556c-4.582-1.111-7.972,0.053-11.892,2.781
	c-4.712,3.257-10.936,7.6-15.729,6.806c-7.653-1.271-10.274-0.04-10.87,7.455c-0.119,1.482-2.979,3.402-4.913,3.919
	c-2.197,0.583-4.766-0.079-7.149-0.384c-5.905-0.769-8.236,2.025-8.515,7.679c-0.131,2.648-0.582,5.853-2.158,7.707
	c-8.367,9.877-17.848,18.18-22.694,31.434c-3.919,10.763-10.923,20.177-9.559,32.545c0.266,2.489-2.226,5.204-2.093,7.732
	c0.345,6.104,1.06,12.261,2.424,18.206c1.099,4.793,3.416,9.309,5.097,13.969c0.557,1.563,1.644,3.642,1.073,4.793
	c-2.396,4.886-0.914,8.594,2.37,12.341c1.881,2.145,3.535,4.661,4.74,7.256c4.596,9.851,9.281,19.358,19.384,25.185
	c2.914,1.668,5.96,5.84,6.146,9.028c0.462,8.635,4.515,15.492,9.135,22.033c7.085,10.036,8.196,33.616-13.24,44.344
	c-29.632,14.83-59.585,29.146-89.932,42.398c-19.041,8.301-28.574,22.27-31.805,41.825c-0.979,5.935-2.278,11.812-3.046,17.771
	C1.865,378.629,0,396.783,0,396.783h197.436h2.25h197.421C397.105,396.784,395.254,378.629,394.088,369.745z"/>
</svg>
